# xmcd CD database file
#
# Track frame offsets:
#	150
#	17677
#	34856
#	53677
#	65933
#	82065
#	98075
#	115061
#	125313
#	138985
#
# Disc length: 2066 seconds
#
# Revision: 0
# Processed by: cddbd v1.5.2PL0 Copyright (c) Steve Scherf et al.
# Submitted via: CDex 1.51
#
DISCID=8408100a
DTITLE=Urban Lambert - La nuit Navajo
DYEAR=2009
DGENRE=Country
TTITLE0=Le prix d'Amérique
TTITLE1=L'impossible
TTITLE2=La nuit Navajo
TTITLE3=Juste mariés
TTITLE4=L'orang-outang du zoo de Vincennes
TTITLE5=Madeleine
TTITLE6=La cité des fleurs
TTITLE7=Rendez-vous
TTITLE8=Sens dessus dessous
TTITLE9=Le café de l'univers
EXTD=YEAR: 2009
EXTT0=
EXTT1=
EXTT2=
EXTT3=
EXTT4=
EXTT5=
EXTT6=
EXTT7=
EXTT8=
EXTT9=
PLAYORDER=
